<?xml version="1.0" encoding="UTF-8" standalone="no"?>
<!-- Created with Inkscape (http://www.inkscape.org/) -->

<svg
   width="13mm"
   height="13mm"
   viewBox="0 0 13 13"
   version="1.1"
   id="svg85580"
   inkscape:version="1.2.2 (732a01da63, 2022-12-09)"
   sodipodi:docname="Saturn Legends 1.svg"
   inkscape:export-filename="Saturnizer EX.png"
   inkscape:export-xdpi="96"
   inkscape:export-ydpi="96"
   xml:space="preserve"
   xmlns:inkscape="http://www.inkscape.org/namespaces/inkscape"
   xmlns:sodipodi="http://sodipodi.sourceforge.net/DTD/sodipodi-0.dtd"
   xmlns="http://www.w3.org/2000/svg"
   xmlns:svg="http://www.w3.org/2000/svg"><sodipodi:namedview
     id="namedview85582"
     pagecolor="#505050"
     bordercolor="#eeeeee"
     borderopacity="1"
     inkscape:showpageshadow="0"
     inkscape:pageopacity="0"
     inkscape:pagecheckerboard="0"
     inkscape:deskcolor="#505050"
     inkscape:document-units="mm"
     showgrid="false"
     inkscape:zoom="4.9780317"
     inkscape:cx="246.18164"
     inkscape:cy="135.194"
     inkscape:window-width="1920"
     inkscape:window-height="1017"
     inkscape:window-x="-8"
     inkscape:window-y="-8"
     inkscape:window-maximized="1"
     inkscape:current-layer="layer1" /><defs
     id="defs85577" /><g
     inkscape:label="Layer 1"
     inkscape:groupmode="layer"
     id="layer1"
     transform="translate(-68.220413,-35)"><g
       id="g68223"
       inkscape:export-filename=".\(A).png"
       inkscape:export-xdpi="96"
       inkscape:export-ydpi="96"
       style="display:inline"
       transform="translate(-11.609569,-145.78258)"><circle
         style="fill:#002b21;fill-opacity:1;stroke-width:337.392;stroke-linecap:round;stroke-linejoin:bevel;paint-order:stroke fill markers"
         id="path4092"
         cx="86.329987"
         cy="187.28258"
         r="6.5" /><circle
         style="fill:#02d5a4;fill-opacity:1;stroke-width:226.637;stroke-linecap:round;stroke-linejoin:bevel;paint-order:stroke fill markers"
         id="path2996"
         cx="86.329987"
         cy="187.28258"
         r="6.25" /><g
         aria-label="A"
         transform="scale(0.9892877,1.0108283)"
         id="text6909"
         style="font-size:11.2131px;font-family:Constantia;-inkscape-font-specification:Constantia;fill-opacity:0.501961;stroke-width:0.280328"><path
           d="m 87.721972,180.82654 2.430966,6.6961 q 0.136878,0.37779 0.246381,0.51466 0.114978,0.13141 0.323034,0.19711 l 0.514664,0.1533 0.01095,0.23544 q -0.717244,-0.0164 -1.330461,-0.0164 -0.624166,0 -1.472814,0.0164 l -0.0219,-0.23544 0.520139,-0.1533 q 0.109503,-0.0383 0.153304,-0.0821 0.04928,-0.0493 0.04928,-0.14783 0,-0.1095 -0.06023,-0.2847 -0.05475,-0.18068 -0.158779,-0.47634 L 88.411842,185.7761 H 85.77282 l -0.57489,1.46186 q -0.114978,0.30661 -0.18068,0.48729 -0.0657,0.18068 -0.0657,0.28471 0,0.0931 0.04928,0.14235 0.05475,0.0438 0.158779,0.0767 l 0.509188,0.14783 0.01095,0.24639 q -0.777471,-0.0164 -1.270234,-0.0164 -0.492763,0 -1.100505,0.0164 l -0.02738,-0.23544 0.55299,-0.16973 q 0.208056,-0.0657 0.306609,-0.20258 0.09855,-0.13687 0.219005,-0.42706 l 2.7978,-6.67968 z m -1.746571,4.45129 h 2.25576 l -1.067654,-3.01681 z"
           id="path123607" /></g></g></g></svg>
